<?xml version="1.0" encoding="iso-8859-1"?>
<!-- Generator: Adobe Illustrator 19.0.0, SVG Export Plug-In . SVG Version: 6.00 Build 0)  -->
<svg version="1.1" id="Capa_1" xmlns="http://www.w3.org/2000/svg" xmlns:xlink="http://www.w3.org/1999/xlink" x="0px" y="0px"
	 viewBox="0 0 512.196 512.196" style="enable-background:new 0 0 512.196 512.196;" xml:space="preserve">
<path style="fill:#37474F;" d="M404.073,282.453c-9.307-14.746-16.03-30.972-19.883-47.979V117.141
	c-0.972-54.189-45.689-97.329-99.878-96.357c-2.266,0.041-4.531,0.16-6.789,0.357c-68.843,0-110.592,30.485-127.616,93.205
	c-1.546,5.684,1.808,11.546,7.493,13.093c0.182,0.05,0.366,0.094,0.55,0.134c21.647,4.77,43.53,8.401,65.557,10.88
	c4.871,0.315,9.334-2.716,10.837-7.36c6.272-19.371,11.029-24.619,32.512-24.619c24.917,0,30.955,12.8,31.872,43.157
	c-117.824,6.507-170.539,39.445-170.539,106.176c0,48.064,51.605,85.333,96,85.333c30.607,2.673,60.999-7.101,84.309-27.115
	c11.591,10.878,24.915,19.746,39.424,26.24c1.348,0.578,2.8,0.875,4.267,0.875c2.831,0.005,5.548-1.115,7.552-3.115l42.667-42.667
	C405.828,291.933,406.511,286.634,404.073,282.453z M295.678,279.466c-10.125,11.316-24.327,18.152-39.488,19.008
	c-9.728,0-41.515-3.84-42.667-53.077c-0.106-10.141,3.968-19.879,11.264-26.923c24.211-18.614,54.228-28.06,84.736-26.667
	c5.712-0.006,10.415,4.49,10.667,10.197C323.256,230.121,314.361,258.232,295.678,279.466L295.678,279.466z"/>
<g>
	<path style="fill:#FFC107;" d="M504.233,362.837c-3.008-0.768-73.835-18.987-106.261,13.44c-4.093,4.237-3.976,10.99,0.261,15.083
		c4.134,3.993,10.688,3.993,14.821,0c17.067-17.067,56.043-13.824,77.333-9.771c-1.835,23.637-9.003,60.928-24.683,66.944
		c-5.532,2.026-8.373,8.153-6.347,13.685c2.026,5.532,8.153,8.373,13.685,6.347c0.093-0.034,0.186-0.07,0.278-0.106
		c35.883-13.739,38.677-86.763,38.869-95.125C512.272,368.419,508.987,364.084,504.233,362.837z"/>
	<path style="fill:#FFC107;" d="M469.523,415.807c0-11.782-9.551-21.333-21.333-21.333c-4.346,0.015-8.577,1.396-12.096,3.947
		c-143.637,57.109-269.504,46.72-420.181-34.667c-5.129-2.897-11.636-1.088-14.533,4.042c-2.418,4.281-1.596,9.661,1.989,13.025
		c74.816,73.707,157.717,110.613,247.872,110.613c70.065-1.803,138.662-20.471,199.979-54.421
		C461.757,435.501,469.567,426.453,469.523,415.807z"/>
</g>
<path d="M352.19,341.141c-1.469-0.002-2.921-0.307-4.267-0.896c-14.517-6.492-27.848-15.36-39.445-26.24
	c-23.299,20.02-53.685,29.802-84.288,27.136c-44.395,0-96-37.269-96-85.333c0-66.731,52.715-99.669,170.539-106.176
	c-0.917-30.293-6.933-43.157-31.872-43.157c-21.504,0-26.24,5.248-32.512,24.619c-1.503,4.644-5.966,7.675-10.837,7.36
	c-22.028-2.479-43.91-6.11-65.557-10.88c-5.758-1.243-9.419-6.918-8.177-12.677c0.04-0.185,0.085-0.368,0.134-0.55
	c17.024-62.72,58.773-93.205,127.616-93.205c53.991-4.722,101.588,35.22,106.309,89.211c0.197,2.258,0.317,4.522,0.357,6.789
	v117.333c3.849,17.008,10.574,33.234,19.883,47.979c2.377,4.161,1.688,9.396-1.685,12.8l-42.667,42.667
	C357.739,339.953,355.029,341.112,352.19,341.141z M266.857,85.141c53.333,0,53.333,48.576,53.333,74.667
	c0.005,5.72-4.503,10.426-10.219,10.667c-142.208,5.803-160.448,48.64-160.448,85.333c0,35.456,40.853,64,74.667,64
	c29.032,3.181,57.863-7.525,77.781-28.885c2.256-2.324,5.467-3.46,8.683-3.072c3.208,0.347,6.086,2.127,7.829,4.843
	c8.524,10.557,19.315,19.059,31.573,24.875l31.595-31.595c-9.566-15.775-15.951-33.27-18.795-51.499V117.141
	c0-25.813-17.835-74.667-85.333-74.667c-54.485,0-87.701,21.333-103.659,66.603c11.563,2.304,29.653,5.717,43.093,7.339
	C223.596,95.106,244.786,81.825,266.857,85.141z"/>
<path d="M256.19,298.474c-9.728,0-41.515-3.84-42.667-53.077c-0.106-10.141,3.968-19.879,11.264-26.923
	c24.211-18.614,54.228-28.06,84.736-26.667c5.712-0.006,10.415,4.49,10.667,10.197c3.066,28.117-5.829,56.227-24.512,77.461
	C285.553,290.782,271.351,297.618,256.19,298.474z M298.857,213.525c-21.23,0.229-41.839,7.191-58.859,19.883
	c-3.269,2.934-5.158,7.106-5.205,11.499c0.747,32.256,16.235,32.256,21.333,32.256c9.333-0.844,17.968-5.299,24.064-12.416
	C292.419,250.501,299.053,232.297,298.857,213.525z"/>
<path d="M469.523,469.141c-5.891,0.004-10.67-4.768-10.674-10.659c-0.003-4.424,2.724-8.39,6.856-9.971
	c14.571-5.568,22.72-39.936,24.704-66.923c-21.333-4.117-60.288-7.317-77.355,9.771c-4.237,4.093-10.99,3.976-15.083-0.261
	c-3.993-4.134-3.993-10.688,0-14.821c32.405-32.405,103.253-14.229,106.261-13.44c4.817,1.262,8.12,5.69,7.957,10.667
	c-0.192,8.277-2.987,81.323-38.848,95.04C472.116,468.973,470.822,469.176,469.523,469.141z"/>
<path d="M251.241,491.349c-90.176,0-173.056-36.907-247.872-110.613c-4.296-4.031-4.511-10.781-0.481-15.077
	c3.364-3.586,8.744-4.407,13.025-1.989c150.763,81.387,276.501,91.733,420.267,34.645c3.509-2.495,7.706-3.836,12.011-3.84l0,0
	c11.782-0.011,21.342,9.531,21.353,21.313c0.01,10.627-7.803,19.641-18.324,21.14C389.903,470.878,321.306,489.546,251.241,491.349z
	 M86.654,420.458c101.781,64.576,217.344,65.536,344.555,2.667C320.513,467.782,196.645,466.823,86.654,420.458z"/>
<g>
</g>
<g>
</g>
<g>
</g>
<g>
</g>
<g>
</g>
<g>
</g>
<g>
</g>
<g>
</g>
<g>
</g>
<g>
</g>
<g>
</g>
<g>
</g>
<g>
</g>
<g>
</g>
<g>
</g>
</svg>
