<svg id="Layer_5" enable-background="new 0 0 64 64" height="512" viewBox="0 0 64 64" width="512" xmlns="http://www.w3.org/2000/svg"><path d="m56 49v6h-16c-3.31 0-6-2.69-6-6v-7.68c.91.44 1.92.68 3 .68s2.09-.24 3-.68v5.68c0 1.1.9 2 2 2z" fill="#ccd1d9"/><path d="m62 42v20c-1.66 0-3.16-.67-4.24-1.76-1.09-1.08-1.76-2.58-1.76-4.24v-1-6-1c0-3.31 2.69-6 6-6z" fill="#cf9e76"/><path d="m60 18v6c0 3.31-2.69 6-6 6h-12.1-9.8-19.1c2.76 0 5-6.27 5-14 0-.68-.02-1.35-.05-2h6.05l4 4z" fill="#aab2bd"/><path d="m9.66 5.58c-1.83-2.19-4.58-3.58-7.66-3.58h40v6c0 1.1.9 2 2 2h18v8h-2-32l-4-4h-6.05-5.95v-2c0-2.44-.88-4.68-2.34-6.42z" fill="#ccd1d9"/><path d="m9.66 5.58c-.61 1.53-1.08 3.46-1.36 5.66l-.19-.03c-1.79-.75-3.32-2.02-4.4-3.62-1.08-1.59-1.71-3.52-1.71-5.59 3.08 0 5.83 1.39 7.66 3.58z" fill="#e6e9ed"/><path d="m42 8v-6h12c4.42 0 8 3.58 8 8h-18c-1.1 0-2-.9-2-2z" fill="#ffeaa7"/><path d="m17.95 14c.03.65.05 1.32.05 2 0 7.73-2.24 14-5 14s-5-6.27-5-14c0-1.67.1-3.27.3-4.76.28-2.2.75-4.13 1.36-5.66 1.46 1.74 2.34 3.98 2.34 6.42v2z" fill="#69d6f4"/><path d="m32.1 30h9.8c1.3 1.27 2.1 3.04 2.1 5 0 2.8-1.63 5.2-4 6.32-.91.44-1.92.68-3 .68s-2.09-.24-3-.68c-2.37-1.12-4-3.52-4-6.32 0-1.96.8-3.73 2.1-5z" fill="#fcd770"/><circle cx="37" cy="35" fill="#ffeaa7" r="3"/><path d="m61 24v-5h2v-9c0-4.963-4.038-9-9-9h-53v1c0 4.247 2.426 8.072 6.221 9.902-.142 1.322-.221 2.698-.221 4.098 0 7.271 2.103 15 6 15h17.077c-.698 1.203-1.077 2.57-1.077 4 0 2.953 1.613 5.532 4 6.918v7.082c0 3.859 3.14 7 7 7h15c0 3.859 3.14 7 7 7h1v-22h-1c-3.86 0-7 3.141-7 7h-13c-.551 0-1-.448-1-1v-5.082c2.387-1.386 4-3.964 4-6.918 0-1.43-.379-2.797-1.077-4h10.077c3.86 0 7-3.141 7-7zm-2 0c0 2.757-2.243 5-5 5h-37.893c1.895-2.767 2.893-7.991 2.893-13 0-.339-.017-.666-.025-1h4.611l4 4h31.414zm1.92-15h-16.92c-.551 0-1-.448-1-1v-5h11c3.519 0 6.432 2.614 6.92 6zm-19.92-6v5c0 1.654 1.346 3 3 3h17v6h-32.586l-4-4h-11.414v-1c0-3.716-1.852-7.008-4.682-9zm-37.938.062c2.138.253 4.044 1.264 5.455 2.748-.417 1.176-.757 2.521-1.007 3.985-2.464-1.417-4.115-3.908-4.448-6.733zm5.938 12.938c0-2.979.349-5.837.974-8.158.652 1.245 1.026 2.658 1.026 4.158v3h5.975c.008.333.025.661.025 1 0 7.936-2.369 13-4 13s-4-5.064-4-13zm48 32c0-2.415 1.721-4.435 4-4.899v17.799c-2.279-.465-4-2.484-4-4.899zm-15 2h13v4h-15c-2.757 0-5-2.243-5-5v-6.263c.641.166 1.308.263 2 .263s1.359-.097 2-.263v4.263c0 1.654 1.346 3 3 3zm1-15c0 3.309-2.691 6-6 6s-6-2.691-6-6c0-1.495.547-2.898 1.536-4h4.464 4.464c.989 1.102 1.536 2.505 1.536 4z"/><path d="m33 35c0 2.206 1.794 4 4 4s4-1.794 4-4-1.794-4-4-4-4 1.794-4 4zm4-2c1.103 0 2 .897 2 2s-.897 2-2 2-2-.897-2-2 .897-2 2-2z"/><path d="m53 5h2v2h-2z"/><path d="m49 5h2v2h-2z"/><path d="m45 5h2v2h-2z"/><path d="m23 9h2v2h-2z"/><path d="m15 9h2v2h-2z"/><path d="m19 9h2v2h-2z"/><path d="m42 21h2v2h-2z"/><path d="m34 21h2v2h-2z"/><path d="m38 21h2v2h-2z"/></svg>