<svg id="Capa_1" enable-background="new 0 0 508.88 508.88" height="512" viewBox="0 0 508.88 508.88" width="512" xmlns="http://www.w3.org/2000/svg"><path d="m429.642 6.356-397.087 132.556c-4.217 1.408-6.495 5.968-5.087 10.185l17.844 53.454 412.36-137.653-17.844-53.454c-1.408-4.218-5.968-6.495-10.186-5.088z" fill="#eceaec"/><path d="m457.672 64.898-409.771 132.482-20.432-48.283c-1.408-4.217.87-8.778 5.087-10.185l397.086-132.556c4.217-1.408 8.778.87 10.185 5.087z" fill="#eceaec"/><g fill="#5d5360"><path d="m139.463 103.224-40.697 81.483 61.09-20.393 40.698-81.483z"/><path d="m261.644 62.437-40.697 81.484 61.09-20.393 40.697-81.484z"/><path d="m429.642 6.356-45.818 15.295-40.697 81.483 61.09-20.393 35.61-71.298c-1.407-4.217-5.967-6.495-10.185-5.087z"/></g><path d="m473.777 502.94h-418.627c-4.446 0-8.051-3.604-8.051-8.051v-233.465h434.728v233.465c.001 4.447-3.604 8.051-8.05 8.051z" fill="#8bb3ea"/><path d="m71.251 446.586v-177.111h-24.152v225.415c0 4.446 3.605 8.051 8.051 8.051h418.627c4.446 0 8.051-3.605 8.051-8.051v-16.101h-378.375c-17.756-.001-32.202-14.447-32.202-32.203z" fill="#739ad6"/><path d="m473.777 205.07h-426.678v64.404h434.728v-56.354c.001-4.445-3.604-8.05-8.05-8.05z" fill="#eceaec"/><path d="m47.099 205.07h434.728v64.404h-434.728z" fill="#eceaec"/><path d="m167.857 205.07-64.404 64.405h64.404l64.404-64.405z" fill="#5d5360"/><path d="m296.665 205.07-64.404 64.405h64.404l64.405-64.405z" fill="#5d5360"/><path d="m425.474 205.07-64.404 64.405h64.404l56.354-56.354v-8.051z" fill="#5d5360"/><path d="m47.099 229.222h24.152v40.253h-24.152z" fill="#dad8db"/><path d="m78.373 123.617-45.818 15.295c-4.217 1.408-6.495 5.968-5.087 10.185l15.295 45.818z" fill="#5d5360"/><path d="m63.2 245.323c-13.339 0-24.152-10.813-24.152-24.152v-24.151c0-13.339 10.813-24.152 24.152-24.152 13.339 0 24.152 10.813 24.152 24.152v24.152c0 13.338-10.813 24.151-24.152 24.151z" fill="#c8c5c9"/><path d="m487.901 205.38c0-4.142-3.358-7.5-7.5-7.5h-384.5v-.5c0-1.011-.053-2.01-.146-2.997l27.021-9.021c3.929-1.312 6.051-5.56 4.739-9.488-1.312-3.929-5.557-6.052-9.489-4.739l-3.482 1.162 30.963-61.994 40.586-13.548-30.963 61.994-5.098 1.702c-3.929 1.312-6.051 5.56-4.739 9.489s5.558 6.053 9.489 4.739l303.989-101.478c1.887-.63 3.446-1.983 4.334-3.763.889-1.779 1.035-3.839.405-5.726l-17.732-53.119c-2.707-8.106-11.501-12.501-19.61-9.794l-394.595 131.724c-8.106 2.706-12.5 11.503-9.794 19.61l12.283 36.795c-.751 2.692-1.161 5.524-1.161 8.452v24c0 8.036 3.029 15.375 8 20.946v251.054c0 8.547 6.953 15.5 15.5 15.5h416c8.547 0 15.5-6.953 15.5-15.5zm-15 56.5h-30.394l30.394-30.394zm-158.394 0 49-49h42.787l-49 49zm-64 0 49-49h42.787l-49 49zm-64 0 49-49h42.787l-49 49zm-64 0 49-49h42.787l-49 49zm27.787-49-49 49h-45.393v-10.175c2.706.76 5.555 1.175 8.5 1.175 17.369 0 31.5-14.131 31.5-31.5v-8.5zm-102.393 8.5v-24c0-9.098 7.402-16.5 16.5-16.5s16.5 7.402 16.5 16.5v24c0 9.098-7.402 16.5-16.5 16.5s-16.5-7.402-16.5-16.5zm46.521-42.366-3.624 1.21c-5.162-7.915-13.779-13.374-23.697-14.22l17.698-35.436 40.585-13.548zm111.791-88.976 40.586-13.548-30.963 61.994-40.586 13.548zm101.293-33.813-30.963 61.994-40.586 13.548 30.963-61.994zm60.707-20.266-30.963 61.994-40.585 13.548 30.963-61.994zm78.694 25.389-28.83 9.624 19.206-38.454zm-17.987-45.654-30.963 61.995-40.587 13.548 30.963-61.994zm-392.597 131.056 28.355-9.465-16.548 33.132c-1.257.761-2.454 1.61-3.588 2.534l-8.535-25.568c-.087-.261.054-.545.316-.633zm436.078 347.13h-416c-.276 0-.5-.225-.5-.5v-216.5h328.5c4.142 0 7.5-3.358 7.5-7.5s-3.358-7.5-7.5-7.5h-5.894l49-49h42.787l-49 49h-4.891c-4.142 0-7.5 3.358-7.5 7.5s3.358 7.5 7.5 7.5h56.498v216.5c0 .276-.225.5-.5.5z"/><path d="m416.401 341.88h-304c-4.142 0-7.5 3.358-7.5 7.5s3.358 7.5 7.5 7.5h304c4.142 0 7.5-3.358 7.5-7.5s-3.358-7.5-7.5-7.5z"/><path d="m416.401 413.88h-304c-4.142 0-7.5 3.358-7.5 7.5s3.358 7.5 7.5 7.5h304c4.142 0 7.5-3.358 7.5-7.5s-3.358-7.5-7.5-7.5z"/></svg>