<?xml version="1.0" encoding="UTF-8" standalone="no"?>
<svg
   xmlns:dc="http://purl.org/dc/elements/1.1/"
   xmlns:cc="http://creativecommons.org/ns#"
   xmlns:rdf="http://www.w3.org/1999/02/22-rdf-syntax-ns#"
   xmlns:svg="http://www.w3.org/2000/svg"
   xmlns="http://www.w3.org/2000/svg"
   xmlns:sodipodi="http://sodipodi.sourceforge.net/DTD/sodipodi-0.dtd"
   xmlns:inkscape="http://www.inkscape.org/namespaces/inkscape"
   height="512pt"
   viewBox="0 0 512 512"
   width="512pt"
   version="1.1"
   id="svg18"
   sodipodi:docname="dash2.svg"
   inkscape:version="1.0.1 (3bc2e813f5, 2020-09-07, custom)">
  <metadata
     id="metadata24">
    <rdf:RDF>
      <cc:Work
         rdf:about="">
        <dc:format>image/svg+xml</dc:format>
        <dc:type
           rdf:resource="http://purl.org/dc/dcmitype/StillImage" />
      </cc:Work>
    </rdf:RDF>
  </metadata>
  <defs
     id="defs22" />
  <sodipodi:namedview
     pagecolor="#ffffff"
     bordercolor="#666666"
     borderopacity="1"
     objecttolerance="10"
     gridtolerance="10"
     guidetolerance="10"
     inkscape:pageopacity="0"
     inkscape:pageshadow="2"
     inkscape:window-width="1880"
     inkscape:window-height="1014"
     id="namedview20"
     showgrid="false"
     inkscape:zoom="1"
     inkscape:cx="316.09718"
     inkscape:cy="358.27671"
     inkscape:window-x="1100"
     inkscape:window-y="46"
     inkscape:window-maximized="0"
     inkscape:current-layer="svg18" />
  <path
     d="M 212.45877,60.087812 H 91.000748 c -15.62705,0 -28.339222,12.712172 -28.339222,28.339218 v 72.87483 c 0,15.63001 12.712172,28.34218 28.339222,28.34218 H 212.45877 c 15.63002,0 28.34219,-12.71217 28.34219,-28.34218 V 88.42703 c 0,-15.627046 -12.71217,-28.339218 -28.34219,-28.339218 z m 0,0"
     fill="#2196f3"
     id="path2"
     style="stroke-width:0.759112" />
  <path
     d="M 212.45877,222.03088 H 91.000748 c -15.62705,0 -28.339222,12.71217 -28.339222,28.34218 v 170.04125 c 0,15.62704 12.712172,28.33921 28.339222,28.33921 H 212.45877 c 15.63002,0 28.34219,-12.71217 28.34219,-28.33921 V 250.37306 c 0,-15.63001 -12.71217,-28.34218 -28.34219,-28.34218 z m 0,0"
     fill="#1976d2"
     id="path4"
     style="stroke-width:0.759112" />
  <path
     d="M 422.98802,319.1973 H 301.52998 c -15.63001,0 -28.34218,12.71217 -28.34218,28.34218 v 72.87483 c 0,15.62704 12.71217,28.33921 28.34218,28.33921 h 121.45804 c 15.62704,0 28.33921,-12.71217 28.33921,-28.33921 v -72.87483 c 0,-15.63001 -12.71217,-28.34218 -28.33921,-28.34218 z m 0,0"
     fill="#2196f3"
     id="path6"
     style="stroke-width:0.759112" />
  <path
     d="M 422.98802,60.087812 H 301.52998 c -15.63001,0 -28.34218,12.712172 -28.34218,28.339218 v 170.04125 c 0,15.63001 12.71217,28.34219 28.34218,28.34219 h 121.45804 c 15.62704,0 28.33921,-12.71218 28.33921,-28.34219 V 88.42703 c 0,-15.627046 -12.71217,-28.339218 -28.33921,-28.339218 z m 0,0"
     fill="#1976d2"
     id="path8"
     style="stroke-width:0.759112" />
  <path
     d="M 212.45877,189.64404 H 91.000748 c -15.62705,0 -28.339222,-12.71217 -28.339222,-28.34218 V 88.42703 c 0,-15.627046 12.712172,-28.339218 28.339222,-28.339218 H 212.45877 c 15.63002,0 28.34219,12.712172 28.34219,28.339218 v 72.87483 c 0,15.63001 -12.71217,28.34218 -28.34219,28.34218 z M 91.000748,84.379418 c -2.232863,0 -4.047616,1.814754 -4.047616,4.047612 v 72.87483 c 0,2.23582 1.814753,4.05058 4.047616,4.05058 H 212.45877 c 2.23583,0 4.05058,-1.81476 4.05058,-4.05058 V 88.42703 c 0,-2.232858 -1.81475,-4.047612 -4.05058,-4.047612 z m 0,0"
     id="path10"
     style="stroke-width:0.759112" />
  <path
     d="M 212.45877,448.75352 H 91.000748 c -15.62705,0 -28.339222,-12.71217 -28.339222,-28.33921 V 250.37306 c 0,-15.63001 12.712172,-28.34218 28.339222,-28.34218 H 212.45877 c 15.63002,0 28.34219,12.71217 28.34219,28.34218 v 170.04125 c 0,15.62704 -12.71217,28.33921 -28.34219,28.33921 z M 91.000748,246.32249 c -2.232863,0 -4.047616,1.81474 -4.047616,4.05057 v 170.04125 c 0,2.23285 1.814753,4.04761 4.047616,4.04761 H 212.45877 c 2.23583,0 4.05058,-1.81476 4.05058,-4.04761 V 250.37306 c 0,-2.23583 -1.81475,-4.05057 -4.05058,-4.05057 z m 0,0"
     id="path12"
     style="stroke-width:0.759112" />
  <path
     d="M 422.98802,448.75352 H 301.52998 c -15.63001,0 -28.34218,-12.71217 -28.34218,-28.33921 v -72.87483 c 0,-15.63001 12.71217,-28.34218 28.34218,-28.34218 h 121.45804 c 15.62704,0 28.33921,12.71217 28.33921,28.34218 v 72.87483 c 0,15.62704 -12.71217,28.33921 -28.33921,28.33921 z M 301.52998,343.4889 c -2.23582,0 -4.05058,1.81476 -4.05058,4.05058 v 72.87483 c 0,2.23285 1.81476,4.04761 4.05058,4.04761 h 121.45804 c 2.23285,0 4.04761,-1.81476 4.04761,-4.04761 v -72.87483 c 0,-2.23582 -1.81476,-4.05058 -4.04761,-4.05058 z m 0,0"
     id="path14"
     style="stroke-width:0.759112" />
  <path
     d="M 422.98802,286.81047 H 301.52998 c -15.63001,0 -28.34218,-12.71218 -28.34218,-28.34219 V 88.42703 c 0,-15.627046 12.71217,-28.339218 28.34218,-28.339218 h 121.45804 c 15.62704,0 28.33921,12.712172 28.33921,28.339218 v 170.04125 c 0,15.63001 -12.71217,28.34219 -28.33921,28.34219 z M 301.52998,84.379418 c -2.23582,0 -4.05058,1.814754 -4.05058,4.047612 v 170.04125 c 0,2.23583 1.81476,4.05058 4.05058,4.05058 h 121.45804 c 2.23285,0 4.04761,-1.81475 4.04761,-4.05058 V 88.42703 c 0,-2.232858 -1.81476,-4.047612 -4.04761,-4.047612 z m 0,0"
     id="path16"
     style="stroke-width:0.759112" />
</svg>
