<svg height="480pt" viewBox="0 0 480.10006 480" width="480pt" xmlns="http://www.w3.org/2000/svg"><path d="m247.730469 132.210938 80.320312 43.839843-80.320312 43.839844c-4.800781 2.558594-10.558594 2.558594-15.359375 0l-80.320313-43.839844 80.320313-43.839843c4.800781-2.5625 10.558594-2.5625 15.359375 0zm0 0" fill="#46f8ff"/><path d="m240.050781 224.050781v125.757813c-2.679687 0-5.316406-.65625-7.679687-1.917969l-72-39.28125c-5.132813-2.828125-8.316406-8.222656-8.320313-14.078125v-118.480469l80.320313 43.839844c2.363281 1.261719 5 1.917969 7.679687 1.917969zm0 0" fill="#39c6cc"/><path d="m328.050781 176.050781v118.480469c-.003906 5.855469-3.191406 11.25-8.320312 14.078125l-72 39.28125c-2.363281 1.261719-5 1.917969-7.679688 1.917969v-128c2.679688 0 5.316407-.65625 7.679688-1.917969zm0 0" fill="#00b6bd"/><path d="m120.050781 416.050781c0 30.925781-25.074219 56-56 56-30.929687 0-56-25.074219-56-56 0-30.929687 25.070313-56 56-56 30.925781 0 56 25.070313 56 56zm0 0" fill="#d80027"/><path d="m472.050781 416.050781c0 30.925781-25.074219 56-56 56-30.929687 0-56-25.074219-56-56 0-30.929687 25.070313-56 56-56 30.925781 0 56 25.070313 56 56zm0 0" fill="#ffda44"/><path d="m120.050781 64.050781c0 30.925781-25.074219 56-56 56-30.929687 0-56-25.074219-56-56 0-30.929687 25.070313-56 56-56 30.925781 0 56 25.070313 56 56zm0 0" fill="#c2fb3b"/><path d="m472.050781 64.050781c0 30.925781-25.074219 56-56 56-30.929687 0-56-25.074219-56-56 0-30.929687 25.070313-56 56-56 30.925781 0 56 25.070313 56 56zm0 0" fill="#ff9811"/><path d="m416.050781 352.050781c-32.222656.054688-59.394531 24.03125-63.449219 56h-40.550781c-4.417969 0-8-3.582031-8-8v-48h-16v48c0 13.253907 10.746094 24 24 24h40.550781c4.289063 34.042969 34.664063 58.648438 68.855469 55.773438 34.191407-2.871094 60.035157-32.199219 58.585938-66.480469s-29.679688-61.320312-63.992188-61.292969zm0 112c-26.511719 0-48-21.492187-48-48 0-26.511719 21.488281-48 48-48 26.507813 0 48 21.488281 48 48-.027343 26.496094-21.503906 47.972657-48 48zm0 0"/><path d="m64.050781 128.050781c32.222657-.054687 59.390625-24.035156 63.445313-56h40.554687c4.417969 0 8 3.582031 8 8v40h16v-40c0-13.253906-10.746093-24-24-24h-40.554687c-4.289063-34.042969-34.660156-58.648437-68.855469-55.777343-34.191406 2.875-60.035156 32.199218-58.5820312 66.484374 1.4492182 34.28125 29.6796872 61.320313 63.9921872 61.292969zm0-112c26.507813 0 48 21.488281 48 48 0 26.507813-21.492187 48-48 48-26.511719 0-48-21.492187-48-48 .027344-26.5 21.5-47.972656 48-48zm0 0"/><path d="m304.050781 80.050781c0-4.417969 3.582031-8 8-8h40.550781c4.222657 33.523438 33.78125 57.988281 67.507813 55.875 33.722656-2.117187 59.992187-30.085937 59.992187-63.875 0-33.789062-26.269531-61.757812-59.992187-63.875-33.726563-2.117187-63.285156 22.347657-67.507813 55.875h-40.550781c-13.253906 0-24 10.746094-24 24v40h16zm112-64c26.507813 0 48 21.488281 48 48 0 26.507813-21.492187 48-48 48-26.511719 0-48-21.492187-48-48 .027344-26.5 21.5-47.972656 48-48zm0 0"/><path d="m176.050781 400.050781c0 4.417969-3.582031 8-8 8h-40.554687c-4.222656-33.527343-33.78125-57.992187-67.503906-55.875-33.722657 2.117188-59.992188 30.085938-59.992188 63.875 0 33.789063 26.269531 61.757813 59.992188 63.875 33.722656 2.113281 63.28125-22.351562 67.503906-55.875h40.554687c13.253907 0 24-10.746093 24-24v-47.527343h-16zm-112 64c-26.511719 0-48-21.492187-48-48 0-26.511719 21.488281-48 48-48 26.507813 0 48 21.488281 48 48-.027343 26.496094-21.503906 47.972657-48 48zm0 0"/><path d="m336.050781 294.546875v-118.496094c0-2.929687-1.597656-5.621093-4.167969-7.023437l-80.335937-43.816406c-7.160156-3.929688-15.832031-3.929688-22.992187 0l-80.335938 43.816406c-2.570312 1.402344-4.167969 4.09375-4.167969 7.023437v118.496094c-.003906 8.78125 4.792969 16.863281 12.503907 21.070313l72 39.273437c7.160156 3.925781 15.828124 3.925781 22.992187 0l72-39.273437c7.707031-4.207032 12.503906-12.289063 12.503906-21.070313zm-99.832031-155.296875c2.386719-1.304688 5.273438-1.304688 7.664062 0l67.464844 36.800781-67.464844 36.800781c-2.390624 1.300782-5.277343 1.300782-7.664062 0l-67.464844-36.800781zm-72 162.320312c-2.570312-1.402343-4.167969-4.097656-4.167969-7.023437v-105.023437l68.503907 37.367187c1.125.550781 2.296874 1.011719 3.496093 1.375v110.3125zm151.664062 0-67.832031 37.007813v-110.3125c1.199219-.363281 2.367188-.824219 3.496094-1.375l68.503906-37.367187v105.023437c0 2.925781-1.597656 5.621094-4.167969 7.023437zm0 0"/><path d="m56.050781 48.050781h16c4.417969 0 8 3.582031 8 8v16c0 4.417969-3.582031 8-8 8h-16c-4.417969 0-8-3.582031-8-8v-16c0-4.417969 3.582031-8 8-8zm0 0"/><path d="m56.050781 400.050781h16c4.417969 0 8 3.582031 8 8v16c0 4.417969-3.582031 8-8 8h-16c-4.417969 0-8-3.582031-8-8v-16c0-4.417969 3.582031-8 8-8zm0 0"/><path d="m408.050781 400.050781h16c4.417969 0 8 3.582031 8 8v16c0 4.417969-3.582031 8-8 8h-16c-4.417969 0-8-3.582031-8-8v-16c0-4.417969 3.582031-8 8-8zm0 0"/><path d="m408.050781 48.050781h16c4.417969 0 8 3.582031 8 8v16c0 4.417969-3.582031 8-8 8h-16c-4.417969 0-8-3.582031-8-8v-16c0-4.417969 3.582031-8 8-8zm0 0"/></svg>