<?xml version="1.0" encoding="iso-8859-1"?>
<!-- Generator: Adobe Illustrator 21.0.0, SVG Export Plug-In . SVG Version: 6.00 Build 0)  -->
<svg xmlns="http://www.w3.org/2000/svg" xmlns:xlink="http://www.w3.org/1999/xlink" version="1.1" id="Capa_1" x="0px" y="0px" viewBox="0 0 511.296 511.296" style="enable-background:new 0 0 511.296 511.296;" xml:space="preserve" width="512" height="512">
<g>
	<path style="fill:#E0E0E0;" d="M374.671,503.817H8.017v-39.91c0-27.996,22.695-50.692,50.692-50.692h265.27   c27.996,0,50.692,22.695,50.692,50.692V503.817z"/>
	<rect x="63.362" y="383.023" style="fill:#AAAAAA;" width="255.963" height="30.192"/>
	<ellipse style="fill:#FFDF65;" cx="191.344" cy="249.024" rx="97.263" ry="96.994"/>
	<path style="fill:#FFCD2C;" d="M191.344,152.029c-4.582,0-9.087,0.323-13.5,0.934c47.326,6.555,83.764,47.061,83.764,96.06   s-36.437,89.505-83.764,96.06c4.413,0.611,8.918,0.935,13.5,0.935c53.717,0,97.263-43.426,97.263-96.994   S245.061,152.029,191.344,152.029z"/>
	<path style="fill:#FFC89F;" d="M440.767,27.723L339.35,50.43c-32.387,7.251-62.828,21.376-89.249,41.412l-82.199,63.031   c7.509-1.854,15.358-2.843,23.442-2.843c15.857,0,30.826,3.788,44.052,10.501c8.033-5.183,16.726-9.292,25.88-12.156l53.947-16.877   l-76.627,78.632c-7.384,7.314-7.568,19.167-0.416,26.706c6.457,6.806,16.908,7.945,24.685,2.689l77.069-52.077l27.523-5.585   c34.891-7.079,64.848-29.2,81.816-60.415l0,0l54.006-17.073V7.48L440.767,27.723z"/>
	<path style="fill:#F7B081;" d="M212.467,154.334c8.063,1.783,15.754,4.555,22.928,8.196c8.033-5.183,16.726-9.292,25.88-12.156   l53.947-16.877l9.272-14.697c3.507-5.559-1.375-12.613-7.828-11.307C249.24,121.141,222.788,141.415,212.467,154.334z"/>
	<g>
		<path style="fill:#F7B081;" d="M367.457,156.937l-27.523,5.585l-77.069,52.077c-7.651,5.17-17.88,4.14-24.358-2.374    c-7.291,7.322-7.449,19.103-0.327,26.61c6.457,6.806,16.908,7.945,24.685,2.689l77.069-52.077l27.523-5.585    c34.891-7.079,64.848-29.2,81.816-60.415l54.006-17.073V79.449l-54.006,17.073C432.305,127.737,402.348,149.858,367.457,156.937z"/>
	</g>
	<path style="fill:#E0E0E0;" d="M330.753,383.023H51.935c-13.649,0-24.714-11.034-24.714-24.646l0,0   c0-13.611,11.065-24.646,24.714-24.646h278.818c13.649,0,24.714,11.034,24.714,24.646l0,0   C355.467,371.989,344.402,383.023,330.753,383.023z"/>
	<path style="fill:#C4C4C4;" d="M323.979,413.215h-27c27.996,0,50.692,22.633,50.692,50.551v40.05h27v-40.05   C374.67,435.848,351.975,413.215,323.979,413.215z"/>
	<rect x="292.325" y="383.023" style="fill:#999999;" width="27" height="30.192"/>
	<path style="fill:#C4C4C4;" d="M330.752,333.732h-27c13.649,0,24.714,11.034,24.714,24.646c0,13.612-11.065,24.646-24.714,24.646   h27c13.649,0,24.714-11.034,24.714-24.646C355.467,344.766,344.402,333.732,330.752,333.732z"/>
	<g>
		<path d="M192.846,241.514c-4.216-0.356-7.081-1.585-8.518-3.653c-1.523-2.193-1.613-5.345-1.421-7.602    c0.236-2.788,1.839-9.186,11.688-8.353c5.454,0.462,7.6,8.085,7.605,8.104c1.022,4.003,5.108,6.422,9.118,5.403    c4.015-1.019,6.44-5.09,5.419-9.093c-0.115-0.452-1.208-4.537-4.009-8.777c-3.554-5.379-8.314-8.813-13.885-10.074v-6.427    c0-4.131-3.357-7.479-7.5-7.479s-7.5,3.349-7.5,7.479v7.227c-9.92,3.323-15.148,12.079-15.884,20.726    c-0.573,6.743,0.823,12.754,4.037,17.382c2.822,4.064,8.511,9.106,19.581,10.042c12.306,1.04,11.771,7.339,11.569,9.709    c-0.154,1.828-1.457,10.91-11.83,10.025c-8.155-0.69-12.428-9.026-12.559-9.287c-1.776-3.705-6.222-5.287-9.954-3.542    c-3.749,1.756-5.361,6.21-3.601,9.949c0.273,0.579,6.025,12.478,18.64,16.54v7.192c0,4.131,3.357,7.479,7.5,7.479    s7.5-3.349,7.5-7.479v-6.506c11.601-2.633,18.363-12.672,19.251-23.108C219.063,255.995,212.938,243.213,192.846,241.514z"/>
		<path d="M507.688,1.429c-1.941-1.406-4.439-1.804-6.726-1.063l-62.18,20.136l-40.897,9.156c-4.042,0.905-6.583,4.906-5.675,8.936    c0.908,4.03,4.924,6.565,8.96,5.659l41.237-9.233c0.228-0.051,0.452-0.112,0.674-0.184l52.696-17.065v83.127l-48.773,15.419    c-1.851,0.585-3.401,1.863-4.327,3.565c-15.953,29.347-43.915,49.995-76.718,56.65l-27.523,5.585    c-0.971,0.197-1.892,0.584-2.712,1.137l-77.069,52.078c-4.758,3.217-11.078,2.527-15.029-1.638    c-4.391-4.628-4.279-11.77,0.253-16.26c0.031-0.031,0.063-0.062,0.094-0.094l76.627-78.632c2.393-2.456,2.808-6.218,1.008-9.134    c-1.8-2.915-5.353-4.241-8.632-3.215l-53.947,16.878c-8.38,2.622-16.468,6.246-24.103,10.785    c-12.849-5.863-26.883-9.13-41.3-9.443l61.014-46.785c25.743-19.522,54.796-33.003,86.352-40.068l30.911-6.921    c4.042-0.905,6.583-4.906,5.675-8.936c-0.907-4.03-4.917-6.562-8.96-5.659l-30.911,6.921    c-33.673,7.539-64.676,21.925-92.178,42.781l-81,62.112c-44.817,11.843-77.949,52.633-77.949,100.999    c0,29.708,12.713,57.655,34.231,77.229H51.935c-17.763,0-32.214,14.411-32.214,32.125c0,17.714,14.451,32.125,32.214,32.125h3.928    v15.306c-30.77,1.485-55.346,26.912-55.346,57.958v40.05c0,4.131,3.357,7.479,7.5,7.479h265.591c4.143,0,7.5-3.349,7.5-7.479    s-3.357-7.479-7.5-7.479H15.517v-32.571c0-23.75,19.376-43.072,43.191-43.072h265.271c23.816,0,43.192,19.322,43.192,43.072    v32.571h-63.564c-4.143,0-7.5,3.349-7.5,7.479s3.357,7.479,7.5,7.479h71.064c4.142,0,7.5-3.349,7.5-7.479v-40.05    c0-31.046-24.576-56.473-55.346-57.958v-15.306h3.928c17.763,0,32.214-14.411,32.214-32.125c0-17.714-14.451-32.125-32.214-32.125    h-68.877c21.518-19.574,34.231-47.521,34.231-77.229c0-6.617-0.633-13.209-1.866-19.667l48.658-32.879l26.053-5.286    c36.16-7.337,67.128-29.682,85.423-61.511l51.171-16.177c3.116-0.985,5.233-3.87,5.233-7.13V7.48    C510.779,5.086,509.63,2.836,507.688,1.429z M263.521,157.511l25.668-8.031l-24.405,25.044    c-4.472-4.382-9.303-8.325-14.422-11.806C254.633,160.664,259.028,158.916,263.521,157.511z M347.967,358.377    c0,9.466-7.722,17.166-17.214,17.166H136.271c-4.143,0-7.5,3.349-7.5,7.479c0,4.131,3.357,7.479,7.5,7.479h175.554v15.234H70.862    v-15.234h35.409c4.143,0,7.5-3.349,7.5-7.479c0-4.131-3.357-7.479-7.5-7.479H51.935c-9.492,0-17.214-7.701-17.214-17.166    c0-9.465,7.722-17.166,17.214-17.166h91.978c0.008,0,0.016,0.001,0.023,0.001c0.008,0,0.015-0.001,0.022-0.001h94.772    c0.007,0,0.015,0.001,0.022,0.001c0.008,0,0.016-0.001,0.023-0.001h91.978C340.245,341.211,347.967,348.912,347.967,358.377z     M281.107,249.023c0,31.76-16.961,61.17-44.383,77.229h-90.761c-27.422-16.059-44.383-45.469-44.383-77.229    c0-49.359,40.268-89.515,89.764-89.515c23.657,0,46.246,9.308,62.985,25.744l-21.07,21.622    c-10.306,10.262-10.543,26.544-0.527,37.101c5.221,5.504,12.253,8.351,19.359,8.351c5.179,0,10.397-1.512,14.98-4.609    l13.433-9.077C280.903,242.078,281.107,245.546,281.107,249.023z"/>
	</g>
</g>















</svg>
