<?xml version="1.0" encoding="iso-8859-1"?>
<!-- Generator: Adobe Illustrator 19.0.0, SVG Export Plug-In . SVG Version: 6.00 Build 0)  -->
<svg version="1.1" id="Capa_1" xmlns="http://www.w3.org/2000/svg" xmlns:xlink="http://www.w3.org/1999/xlink" x="0px" y="0px"
	 viewBox="0 0 442.02 442.02" style="enable-background:new 0 0 442.02 442.02;" xml:space="preserve">
<path style="fill:#FDC75B;" d="M398.31,249.6c5.1,3.1,5.1,10.5,0,13.7l-20.1,12.5l8.9,21.9c2.2,5.5-2.1,11.5-8,11.1l-10.8-0.8
	l-12.8-0.9l-5.7,23c-1.4,5.7-8.4,8-13,4.2l-18.2-15.3l-18.1,15.3c-4.6,3.8-11.6,1.5-13-4.2l-5.7-23l-12.8,0.9l-10.8,0.8
	c-5.9,0.4-10.3-5.5-8-11.1l8.9-21.9l-20.2-12.5c-5.1-3.2-5.1-10.5,0-13.7l20.1-12.6l-8.9-21.9c-2.2-5.5,2.1-11.5,8-11.1l23.6,1.7
	l5.7-22.9c1.4-5.8,8.4-8.1,13-4.2l18.1,15.2l7.3-6.2l10.8-9.1c4.6-3.9,11.6-1.6,13,4.2l5.7,22.9l23.6-1.7c5.9-0.4,10.3,5.5,8,11.1
	l-8.9,21.9L398.31,249.6z M349.51,256.4c0-17.1-13.9-31-31-31c-17,0-30.9,13.9-30.9,31c0,17,13.9,30.9,30.9,30.9
	C335.71,287.4,349.51,273.5,349.51,256.4z"/>
<g>
	<path style="fill:#ED664C;" d="M368.31,308l-0.2,3.1V432l-49.5-46.9l-49.4,46.9v-67.6V311l-0.2-3.1l12.8-0.9l5.7,23
		c1.4,5.7,8.4,8,13,4.2l18.1-15.3l18.1,15.3c4.6,3.8,11.6,1.5,13-4.2l5.7-23L368.31,308z"/>
	<path style="fill:#ED664C;" d="M318.61,225.5c17.1,0,31,13.9,31,31c0,17-13.9,30.9-31,30.9c-17,0-30.9-13.9-30.9-30.9
		C287.71,239.3,301.51,225.5,318.61,225.5z"/>
</g>
<path style="fill:#FDC75B;" d="M321.21,182l4.7,5.6l-7.3,6.2l-18.1-15.2c-4.6-3.9-11.6-1.6-13,4.2l-5.7,22.9l-23.6-1.7
	c-5.9-0.4-10.3,5.5-8,11.1l8.9,21.9l-20.2,12.6c-5.1,3.1-5.1,10.5,0,13.7l20.1,12.5l-8.9,21.9c-2.2,5.5,2.1,11.5,8,11.1l10.8-0.8
	l0.2,3.1v53.4h-0.1H65.81c-14.4,0-26.1-11.7-26.1-26.1V36.1c0-14.4,11.7-26.1,26.1-26.1h151.9c5,0,9.7,1.1,14.1,3.3l-4.4,7.1v52.1
	c0,14.4,11.7,26.1,26.1,26.1h57.3l7.8-3c1.7,3.9,2.6,8.1,2.6,12.5V182z"/>
<path style="fill:#ED664C;" d="M318.61,95.6l-7.8,3h-57.3c-14.4,0-26.1-11.7-26.1-26.1V20.4l4.4-7.1c2.6,1.3,5,3,7.2,5l72.2,66.8
	C314.41,88.1,316.91,91.7,318.61,95.6z"/>
<path d="M65.81,374h193.1v58c0,4,2.5,7.6,6.2,9.2c1.3,0.5,2.7,0.8,4,0.8c2.5,0,5-0.9,6.9-2.7l42.5-40.4l42.6,40.4
	c2.9,2.7,7.1,3.5,10.8,1.9c3.7-1.6,6-5.2,6-9.2V318.7h0.4c6.2,0.4,12.2-2.3,15.9-7.4c3.7-5.1,4.5-11.6,2.1-17.4l-5.7-14.2l13-8.1
	c5.3-3.3,8.5-9.1,8.5-15.4s-3.2-12-8.5-15.2l-13-8.1l5.7-14.2c2.4-5.8,1.6-12.3-2.1-17.4c-3.7-5.1-9.6-7.8-15.9-7.4l-15.2,1.1
	l-3.7-14.7c-1.5-6.1-6.1-10.9-12-12.9c-5.6-1.8-11.5-0.8-16.5,2.6v-62.1c0-5.7-1-11.3-3.3-16.5c-2.2-5.2-5.5-9.9-9.7-13.8L245.81,11
	c-2.9-2.7-6.1-4.9-9.5-6.6c-5.7-2.9-12.1-4.4-18.6-4.4H65.81c-19.9,0-35.9,16.2-35.9,36.1v302.3C29.91,358.3,45.91,374,65.81,374z
	 M325.41,377.8c-3.9-3.7-10-3.7-13.9,0l-32.6,30.9v-72.5c2,4.3,6,7.5,10.6,9.1c6,2,12.5,0.8,17.4-3.3l11.7-9.8l11.8,9.9
	c3.3,2.7,7.4,4.2,11.5,4.2c1.9,0,3.8-0.3,5.6-0.9c4.7-1.5,8.4-4.8,10.4-9.1v72.5L325.41,377.8z M332.41,195.3l8.4-7.1l5,19.9
	c1.2,4.7,5.5,7.9,10.4,7.5l20.5-1.4l-7.7,19.1c-1.8,4.5-0.1,9.6,4,12.2l17.4,10.9l-17.5,10.9c-4.1,2.6-5.8,7.7-4,12.2l7.7,19
	l-20.5-1.4c-4.8-0.3-9.2,2.9-10.4,7.6l-5,20l-15.7-13.2c-1.9-1.6-4.2-2.4-6.4-2.4c-2.3,0-4.6,0.8-6.5,2.4l-15.7,13.2l-5-19.9
	c-1.2-4.7-5.6-7.9-10.4-7.6l-20.5,1.4l7.7-19c1.8-4.5,0.1-9.7-4-12.2l-17.3-11l17.4-10.9c4.1-2.6,5.8-7.7,4-12.2l-7.7-19.1l20.5,1.4
	c4.8,0.3,9.2-2.8,10.4-7.5l5-19.9l15.7,13.2c3.7,3.1,9.1,3.1,12.9,0L332.41,195.3L332.41,195.3z M300.21,89h-46.8
	c-8.9,0-16.5-7.6-16.5-16.4V30.5L300.21,89z M49.91,36.1c0-8.9,7-16.1,15.9-16.1h151.6c0,0-0.5,0.3-0.5,0.4v52.1
	c0,19.9,16.6,36.4,36.5,36.4h57.3c0.1,0,0.1-0.4,0.1-0.4v65.9l-4.1-3.6c-4.8-4.1-11.2-5.3-17.2-3.4c-6,2-10.4,6.8-11.8,12.8
	l-3.7,14.8l-15.2-1.1c-6.3-0.4-12.2,2.3-15.9,7.4c-3.7,5.1-4.5,11.6-2.1,17.4l5.7,14.2l-12.9,8.1c-5.3,3.3-8.5,9-8.5,15.2
	c0,6.3,3.1,12,8.5,15.4l12.9,8.1l-5.6,14.3c-2.4,5.8-1.6,12.3,2.1,17.4s9.5,7.8,15.8,7.4h0.1V354H65.81c-8.9,0-15.9-6.8-15.9-15.6
	V36.1z"/>
<path d="M277.71,256.4c0,22.6,18.4,40.9,40.9,40.9c22.6,0,41-18.4,41-40.9c0-22.6-18.4-41-41-41
	C296.01,215.5,277.71,233.9,277.71,256.4z M339.51,256.4c0,11.5-9.4,20.9-21,20.9c-11.5,0-20.9-9.4-20.9-20.9c0-11.6,9.4-21,20.9-21
	C330.11,235.5,339.51,244.9,339.51,256.4z"/>
<g>
</g>
<g>
</g>
<g>
</g>
<g>
</g>
<g>
</g>
<g>
</g>
<g>
</g>
<g>
</g>
<g>
</g>
<g>
</g>
<g>
</g>
<g>
</g>
<g>
</g>
<g>
</g>
<g>
</g>
</svg>
