<svg height="512" viewBox="0 0 64 64" width="512" xmlns="http://www.w3.org/2000/svg"><g id="Fill_Outlines" data-name="Fill Outlines"><g id="Color"><g><path d="m10 43h28v18h-28z" fill="#d0d8da"/><path d="m21 58a8 8 0 0 1 -8-8v-7h-3v18h28v-3z" fill="#93999a"/><circle cx="32" cy="16.435" fill="#f9e109" r="4"/><path d="m26 49h12v6h-12z" fill="#57b7eb"/><path d="m14 49h8v12h-8z" fill="#f9e109"/><circle cx="14" cy="38" fill="#f9e109" r="2"/><g fill="#fcbc04"><path d="m34 18.435a3.985 3.985 0 0 1 -3.64-5.64 3.995 3.995 0 1 0 5.28 5.28 3.961 3.961 0 0 1 -1.64.36z"/><path d="m15 39a1.992 1.992 0 0 1 -1.82-2.82 2 2 0 1 0 2.64 2.64 1.99 1.99 0 0 1 -.82.18z"/><path d="m14 49v2a6 6 0 0 1 6 6v4h2v-12z"/><path d="m21 58a8 8 0 0 1 -7-4.13v7.13h8v-3z"/></g><path d="m20 57.931v3.069h2v-3h-1a8.047 8.047 0 0 1 -1-.069z" fill="#e59730"/><path d="m32 53a4 4 0 0 1 -4-4h-2v6h12l-2.333-2z" fill="#4891d3"/><path d="m38 53v-4h-7l4.667 4z" fill="#aae1f9"/></g></g><g id="Outline"><g fill="#323232"><path d="m35.712 19.753a4.974 4.974 0 0 0 -2.712-8.217v-3.536a1 1 0 0 0 -2 0v3.536a4.974 4.974 0 0 0 -2.712 8.217l-6.542 18.81h.007a.986.986 0 0 0 0 .667 1 1 0 0 0 .934.659l17.949.111 6.325 18.184-4.574-3.5a1 1 0 1 0 -1.215 1.587l7.221 5.522a1 1 0 0 0 1.551-1.122zm-3.712 9.447-2.131-3.2h4.263zm-1.326 1.616-5.837 4.948 3.132-9zm-1.746-6.816 1.045-3a4.9 4.9 0 0 0 4.054 0l1.045 3zm3.072-10.565a2.986 2.986 0 0 1 1.9 5.3l-.014.012a2.933 2.933 0 0 1 -3.77 0l-.014-.012a2.986 2.986 0 0 1 1.9-5.3zm-6.6 24.472 6.588-5.583 6.367 5.66zm7.918-7.076 2.716-4.074 3.266 9.392z"/><path d="m23.929 23.506a1 1 0 0 0 1.414-1.414 8 8 0 0 1 0-11.314 1 1 0 0 0 -1.414-1.414 10 10 0 0 0 0 14.142z"/><path d="m38.657 23.506a1 1 0 0 0 1.414 0 10 10 0 0 0 0-14.142 1 1 0 0 0 -1.414 1.414 8 8 0 0 1 0 11.314 1 1 0 0 0 0 1.414z"/><path d="m20.394 27.042a1 1 0 0 0 1.414-1.414 13.016 13.016 0 0 1 0-18.386 1 1 0 1 0 -1.414-1.414 15.017 15.017 0 0 0 0 21.214z"/><path d="m42.192 25.628a1 1 0 1 0 1.414 1.414 15.017 15.017 0 0 0 0-21.214 1 1 0 0 0 -1.414 1.414 13.016 13.016 0 0 1 0 18.386z"/><path d="m17.565 30.87a1 1 0 0 0 .707-1.707 18.021 18.021 0 0 1 0-25.456 1 1 0 0 0 -1.414-1.414 20.022 20.022 0 0 0 0 28.284 1 1 0 0 0 .707.293z"/><path d="m45.728 29.163a1 1 0 1 0 1.414 1.414 20.022 20.022 0 0 0 0-28.284 1 1 0 0 0 -1.414 1.414 18.021 18.021 0 0 1 0 25.456z"/><path d="m38 42h-23v-1.184a3 3 0 1 0 -2 0v1.184h-3a1 1 0 0 0 -1 1v4a1 1 0 0 0 2 0v-3h26v4h-11a1 1 0 0 0 -1 1v6a1 1 0 0 0 1 1h7a1 1 0 0 0 0-2h-6v-4h3.631l6.369 5.46v4.54h-14v-11a1 1 0 0 0 -1-1h-8a1 1 0 0 0 -1 1v8a1 1 0 0 0 2 0v-7h6v3h-1a1 1 0 0 0 0 2h1v5h-10v-9a1 1 0 0 0 -2 0v10a1 1 0 0 0 1 1h28a1 1 0 0 0 1-1v-18a1 1 0 0 0 -1-1zm-24-5a1 1 0 1 1 -1 1 1 1 0 0 1 1-1zm19.7 13h3.3v2.826z"/></g></g></g></svg>