<svg height="512pt" viewBox="0 -40 512 512" width="512pt" xmlns="http://www.w3.org/2000/svg"><path d="m151.464844 46h350.535156v340h-350.535156zm0 0" fill="#b2f0bf"/><path d="m109 56c2.628906 0 5.210938-1.070312 7.070312-2.929688 1.859376-1.859374 2.929688-4.441406 2.929688-7.070312s-1.070312-5.210938-2.929688-7.070312c-1.859374-1.859376-4.441406-2.929688-7.070312-2.929688s-5.210938 1.070312-7.070312 2.929688c-1.859376 1.859374-2.929688 4.441406-2.929688 7.070312s1.070312 5.210938 2.929688 7.070312c1.859374 1.859376 4.441406 2.929688 7.070312 2.929688zm0 0"/><path d="m502 36h-108v-26c0-5.523438-4.476562-10-10-10s-10 4.476562-10 10v26h-220c-5.523438 0-10 4.476562-10 10s4.476562 10 10 10h220v151.628906c-5.054688-6.136718-12.589844-9.65625-20.640625-9.550781-9.085937.132813-17.335937 4.839844-22.113281 12.664063-1.765625 2.902343-4.585938 3.066406-5.714844 3.007812-1.128906-.0625-3.914062-.539062-5.351562-3.613281l-8.121094-17.339844c-3.203125-6.835937-10.132813-10.742187-17.632813-9.941406-7.507812.796875-13.453125 6.066406-15.148437 13.421875l-15.515625 67.375-13.214844-114.5c-.976563-8.472656-7.597656-14.800782-16.105469-15.394532-8.5-.59375-15.941406 4.75-18.089844 13.003907l-17.628906 67.769531c-.472656 1.824219-1.808594 2.335938-2.84375 2.441406-1.035156.101563-2.445312-.125-3.277344-1.816406-3.820312-7.757812-11.5625-12.734375-20.207031-12.984375-8.675781-.269531-16.664062 4.261719-20.929687 11.785156l-8.335938 14.695313c-.773437 1.359375-2.011718 1.625-2.679687 1.660156-.671875.03125-1.929688-.09375-2.839844-1.359375-10.351563-14.378906-27.109375-22.960937-44.824219-22.960937h-39.117187c-5.523438 0-10 4.476562-10 10 0 5.523437 4.476562 10 10 10h39.117187c11.300782 0 21.988282 5.476562 28.59375 14.644531 4.660156 6.472656 12.1875 10.085937 20.152344 9.644531 7.960938-.429688 15.0625-4.828125 18.992188-11.761719l8.335937-14.695312c.847656-1.496094 2.214844-1.679688 2.953125-1.664063.738281.023438 2.085938.289063 2.847656 1.832032 4.34375 8.820312 13.476563 13.867187 23.25 12.875 9.777344-.996094 17.695313-7.789063 20.167969-17.300782l14.175781-54.488281 13.34375 115.648437c.992188 8.589844 7.714844 14.929688 16.347656 15.410157.351563.019531.695313.027343 1.039063.027343 8.183594 0 15.0625-5.4375 16.921875-13.523437l17.191406-74.628906 4.96875 10.605469c4.113282 8.78125 12.683594 14.566406 22.367188 15.101562 9.683594.546875 18.835937-4.277344 23.929687-12.628906 1.632813-2.675782 4.238281-2.996094 5.28125-3.011719 1.078125-.023437 3.660157.234375 5.367188 2.859375l4.914062 7.566406c2.542969 3.90625 6.039063 7 10.074219 9.066406v138.429688h-354v-28h115.5c5.523438 0 10-4.476562 10-10s-4.476562-10-10-10h-115.5v-272h46c5.523438 0 10-4.476562 10-10s-4.476562-10-10-10h-56c-5.523438 0-10 4.476562-10 10v340c0 5.523438 4.476562 10 10 10h364v25.9375c0 5.523438 4.476562 10 10 10s10-4.476562 10-10v-25.9375h108c5.523438 0 10-4.476562 10-10v-340c0-5.523438-4.476562-10-10-10zm-10 340h-98v-136.796875c5.140625-1.652344 9.734375-4.867187 13.046875-9.308594 1.824219-2.445312 4.730469-3.902343 7.78125-3.902343h43.503906c5.523438 0 10-4.480469 10-10 0-5.523438-4.476562-10-10-10h-43.503906c-7.8125 0-15.316406 3.136718-20.828125 8.546874v-158.539062h98zm0 0"/><path d="m173.863281 348c5.523438 0 10-4.476562 10-10s-4.476562-10-10-10h-.726562c-5.523438 0-10 4.476562-10 10s4.476562 10 10 10zm0 0"/></svg>