<?xml version="1.0" encoding="iso-8859-1"?>
<!-- Generator: Adobe Illustrator 19.0.0, SVG Export Plug-In . SVG Version: 6.00 Build 0)  -->
<svg version="1.1" id="Capa_1" xmlns="http://www.w3.org/2000/svg" xmlns:xlink="http://www.w3.org/1999/xlink" x="0px" y="0px"
	 viewBox="0 0 511.999 511.999" style="enable-background:new 0 0 511.999 511.999;" xml:space="preserve">
<circle style="fill:#F2DC50;" cx="256.14" cy="256" r="213.99"/>
<path style="fill:#D9AD29;" d="M256.145,42.011c-5.044,0-10.043,0.188-15,0.531C352.327,50.243,440.134,142.861,440.134,256
	s-87.807,205.757-198.989,213.458c4.957,0.344,9.956,0.531,15,0.531c118.183,0,213.989-95.806,213.989-213.989
	S374.328,42.011,256.145,42.011z"/>
<rect x="7.36" y="216" style="fill:#FF4A4A;" width="497.29" height="80"/>
<rect x="474.64" y="216" style="fill:#D62F2F;" width="30" height="80"/>
<g>
	<rect x="61.15" y="241" style="fill:#38BCFF;" width="30" height="30"/>
	<rect x="424.11" y="241" style="fill:#38BCFF;" width="30" height="30"/>
	<path style="fill:#38BCFF;" d="M256.145,414.5c-41.248-15.046-76.197-37.184-104.043-65.929
		c-18.671-19.28-28.957-44.801-28.957-71.856V148.149l133-50.649l133,50.649v128.566c0,27.061-10.284,52.579-28.957,71.857
		C332.352,377.314,297.402,399.451,256.145,414.5z"/>
</g>
<path style="fill:#2982BA;" d="M359.145,136.725V282.27c0,34.317-19,80.511-103,132.23c41.257-15.049,76.207-37.186,104.043-65.928
	c18.673-19.277,28.957-44.796,28.957-71.857V148.149L359.145,136.725z"/>
<path d="M504.504,208.498h-32.107C450.325,107.305,360.37,34.5,256.145,34.5c-41.843,0-82.587,11.741-117.828,33.954
	c-34.282,21.609-61.993,52.151-80.137,88.324c-1.857,3.702-0.363,8.21,3.337,10.068c3.701,1.858,8.205,0.364,10.062-3.339
	c6.112-12.185,13.29-23.569,21.387-34.065c9.147,3.847,19.372,7.378,30.563,10.561l-2.975,1.134
	c-2.907,1.107-4.828,3.897-4.828,7.009v43.368c-1.124,5.617-2.103,11.303-2.92,16.986H55.281c1.284-5.455,2.769-10.872,4.486-16.176
	c1.275-3.941-0.883-8.17-4.821-9.447c-3.939-1.276-8.165,0.884-9.441,4.824c-2.203,6.807-4.077,13.78-5.611,20.798H7.496
	c-4.14,0-7.496,3.358-7.496,7.5v80.004c0,4.142,3.356,7.5,7.496,7.5h32.397C61.81,403.908,151.04,476.702,254.476,477.49l1.669,0.01
	l1.726-0.01c0.019,0,0.038-0.001,0.057-0.001c0.007,0,0.015,0,0.022,0c0.006,0,0.012,0,0.018,0
	c34.423-0.277,67.358-8.244,97.889-23.682c3.695-1.868,5.176-6.38,3.309-10.077c-1.868-3.697-6.376-5.178-10.071-3.311
	c-7.158,3.62-14.459,6.797-21.887,9.532c8.798-7.315,17.118-16.003,24.793-25.995c9.071-11.808,17.098-25.236,23.947-39.88
	c12.238,3.133,23.349,6.661,33.2,10.539c-9.253,10.197-19.571,19.543-30.876,27.861c-3.335,2.454-4.051,7.149-1.599,10.486
	c1.469,1.999,3.742,3.058,6.045,3.058c1.542,0,3.097-0.474,4.434-1.458c43.689-32.143,73.782-78.501,85.246-131.058h32.105
	c4.14,0,7.496-3.358,7.496-7.5v-80.004C512,211.856,508.644,208.498,504.504,208.498z M409.154,117.384
	c-9.847,3.877-20.953,7.405-33.177,10.534c-12.225-26.079-28.143-48.032-46.478-63.976c-0.675-0.587-1.353-1.165-2.034-1.735
	C358.882,73.792,386.892,92.834,409.154,117.384z M367.292,366.602c-4.039-0.888-8.158-1.728-12.345-2.518
	c3.624-3.335,7.151-6.761,10.566-10.29c3.895-4.023,7.445-8.303,10.644-12.795C373.579,349.901,370.611,358.451,367.292,366.602z
	 M256.145,462.499c-2.945,0-12.526-9.34-21.343-48.493c6.116,2.677,12.363,5.207,18.775,7.547c0.829,0.303,1.699,0.454,2.568,0.454
	c0.87,0,1.739-0.151,2.568-0.454c6.41-2.339,12.655-4.869,18.769-7.544C268.674,453.16,259.091,462.499,256.145,462.499z
	 M294.06,103.915c-4.544-22.89-9.846-40.016-15.981-51.53c32.266,8.511,61.359,35.611,81.784,76.604L294.06,103.915z
	 M277.386,97.561l-18.574-7.077c-1.718-0.655-3.617-0.655-5.335,0l-18.574,7.077c8.796-38.835,18.331-48.061,21.241-48.061
	C259.055,49.501,268.59,58.727,277.386,97.561z M234.211,52.385c-6.135,11.514-11.437,28.64-15.981,51.53l-65.803,25.075
	C172.852,87.997,201.945,60.896,234.211,52.385z M136.188,341.075c3.185,4.464,6.716,8.718,10.589,12.719
	c3.416,3.529,6.944,6.955,10.568,10.29c-4.171,0.787-8.276,1.624-12.302,2.509C141.713,358.415,138.752,349.89,136.188,341.075z
	 M172.188,376.721c13.939,11.022,29.168,20.781,45.616,29.223c3.958,20.425,8.638,36.738,13.925,48.518
	c0.814,1.813,1.642,3.506,2.485,5.101c-22.404-6.009-43.681-21.119-61.471-44.018c-8.057-10.372-15.251-22.127-21.473-34.953
	C158.041,379.161,165.038,377.866,172.188,376.721z M256.145,406.51c-39.014-14.622-72.177-35.861-98.6-63.153
	c-17.301-17.877-26.829-41.544-26.829-66.642V192.24c0-0.022,0-0.044,0-0.066v-38.86l125.429-47.796l28.673,10.926
	c0.063,0.024,0.125,0.049,0.188,0.072l96.568,36.798v38.86c0,0.022,0,0.044,0,0.066v84.476c0,25.103-9.528,48.769-26.83,66.642
	C328.333,370.646,295.169,391.884,256.145,406.51z M185.116,61.968c-0.779,0.648-1.554,1.305-2.325,1.975
	c-18.335,15.943-34.254,37.896-46.479,63.975c-12.263-3.14-23.394-6.678-33.259-10.567
	C125.565,92.361,153.716,73.405,185.116,61.968z M14.992,223.499h30.99c0.01,0,0.021,0.001,0.031,0.001
	c0.011,0,0.022-0.001,0.033-0.001h69.679v53.218c0,3.964,0.213,7.895,0.62,11.785h-70.21c-0.01,0-0.02,0-0.029,0H14.992V223.499z
	 M112.811,303.502c3.4,23.575,9.352,46.092,17.512,66.638c-13.83,3.635-26.317,7.781-37.264,12.379
	c-17.769-22.851-30.896-49.622-37.804-79.017H112.811z M103.21,394.587c9.834-3.868,20.923-7.387,33.128-10.512
	c7.004,14.971,15.242,28.671,24.57,40.678c7.43,9.563,15.444,17.919,23.905,24.989C153.447,438.144,125.463,419.1,103.21,394.587z
	 M278.052,459.609c0.85-1.607,1.686-3.316,2.507-5.145c5.287-11.781,9.964-28.093,13.917-48.514
	c16.455-8.444,31.688-18.205,45.629-29.228c7.165,1.146,14.175,2.444,20.956,3.879C341.028,421.862,311.437,450.72,278.052,459.609z
	 M419.294,382.546c-10.961-4.608-23.467-8.762-37.327-12.406c8.161-20.552,14.114-43.077,17.512-66.638h57.551
	C450.228,332.471,437.319,359.341,419.294,382.546z M497.008,288.501H395.946c0.406-3.89,0.619-7.821,0.619-11.785v-53.218h19.489
	c4.14,0,7.496-3.358,7.496-7.5s-3.356-7.5-7.496-7.5h-16.569c-0.818-5.682-1.797-11.368-2.92-16.986v-43.368
	c0-3.112-1.921-5.902-4.828-7.009l-2.975-1.134c11.172-3.178,21.387-6.704,30.526-10.545c17.734,22.838,30.837,49.608,37.747,79.041
	h-8.749c-4.14,0-7.496,3.358-7.496,7.5s3.356,7.5,7.496,7.5h17.958c0.011,0,0.022,0.001,0.033,0.001c0.01,0,0.021-0.001,0.031-0.001
	h30.7L497.008,288.501L497.008,288.501z"/>
<path d="M61.255,278.501h29.983c4.14,0,7.496-3.358,7.496-7.5V241c0-4.142-3.356-7.5-7.496-7.5H61.255
	c-4.14,0-7.496,3.358-7.496,7.5v30.001C53.76,275.143,57.116,278.501,61.255,278.501z M68.751,248.5h14.992v15H68.751V248.5z"/>
<path d="M453.997,233.499h-29.983c-4.14,0-7.496,3.358-7.496,7.5V271c0,4.142,3.356,7.5,7.496,7.5h29.983
	c4.14,0,7.496-3.358,7.496-7.5v-30.001C461.492,236.857,458.136,233.499,453.997,233.499z M446.501,263.5h-14.992v-15h14.992V263.5z
	"/>
<path d="M208.682,193.664c-3.947-1.258-8.16,0.926-9.416,4.873l-19.531,61.428l-21.208-61.597c-1.348-3.916-5.613-5.998-9.528-4.648
	c-3.914,1.349-5.994,5.618-4.645,9.534l28.578,83.004c1.043,3.029,3.891,5.057,7.086,5.057c0.029,0,0.06,0,0.089,0
	c3.232-0.039,6.075-2.145,7.054-5.226l26.391-83.004C214.807,199.138,212.627,194.92,208.682,193.664z"/>
<path d="M260.14,191.497c-6.144,0-11.862,1.846-16.641,5.006c-1.356-1.929-3.594-3.193-6.13-3.193c-4.14,0-7.496,3.358-7.496,7.5
	v20.972v3.22v58.812c0,4.142,3.356,7.5,7.496,7.5s7.496-3.358,7.496-7.5v-32.682c4.487,2.637,9.706,4.156,15.276,4.156
	c16.689,0,30.267-13.586,30.267-30.286v-3.22C290.407,205.083,276.829,191.497,260.14,191.497z M275.416,225.003
	c0,8.428-6.853,15.285-15.275,15.285l0,0c-8.422,0-15.275-6.857-15.275-15.285v-3.22c0-8.428,6.853-15.285,15.276-15.285
	c8.422,0,15.275,6.857,15.275,15.285v3.22H275.416z"/>
<path d="M352.292,291.137c3.43-0.763,5.87-3.806,5.87-7.322v-83.004c0-4.142-3.356-7.5-7.496-7.5s-7.496,3.358-7.496,7.5v49.237
	l-24.476-52.412c-1.487-3.185-4.986-4.91-8.417-4.147c-3.43,0.763-5.87,3.806-5.87,7.322v83.004c0,4.142,3.356,7.5,7.496,7.5
	s7.496-3.358,7.496-7.5v-49.237l24.476,52.412c1.252,2.68,3.928,4.326,6.789,4.326C351.203,291.316,351.749,291.257,352.292,291.137
	z"/>
<g>
</g>
<g>
</g>
<g>
</g>
<g>
</g>
<g>
</g>
<g>
</g>
<g>
</g>
<g>
</g>
<g>
</g>
<g>
</g>
<g>
</g>
<g>
</g>
<g>
</g>
<g>
</g>
<g>
</g>
</svg>
