<?xml version="1.0" encoding="iso-8859-1"?>
<!-- Generator: Adobe Illustrator 19.0.0, SVG Export Plug-In . SVG Version: 6.00 Build 0)  -->
<svg version="1.1" id="Capa_1" xmlns="http://www.w3.org/2000/svg" xmlns:xlink="http://www.w3.org/1999/xlink" x="0px" y="0px"
	 viewBox="0 0 480 480" style="enable-background:new 0 0 480 480;" xml:space="preserve">
<path style="fill:#F8C09C;" d="M360,360.067v-112h-32l-20.888-31.328c-7.37-11.061-16.223-21.059-26.312-29.712
	c-26.324-22.562-59.85-34.962-94.52-34.96H96l-73.368,73.376c-4.248,4.241-6.635,9.997-6.632,16
	c0,12.495,10.129,22.624,22.624,22.624c0.003,0,0.005,0,0.008,0c6-0.001,11.755-2.384,16-6.624L72,240.067l6.152,20.496
	c11.025,36.744,41.048,64.659,78.496,72.984c7.547,1.674,15.254,2.519,22.984,2.52H296L360,360.067z"/>
<g>
	<path style="fill:#5A6570;" d="M176,416.067H8c-4.418,0-8-3.582-8-8s3.582-8,8-8h168c4.418,0,8,3.582,8,8
		S180.418,416.067,176,416.067z"/>
	<path style="fill:#5A6570;" d="M216,416.067h-8c-4.418,0-8-3.582-8-8s3.582-8,8-8h8c4.418,0,8,3.582,8,8
		S220.418,416.067,216,416.067z"/>
</g>
<path style="fill:#EF937D;" d="M238.544,227.115c-14.286-17.138-35.433-27.064-57.744-27.104h-21.032H112l-40,40.056l6.152,20.496
	c13.439,44.818,54.69,75.511,101.48,75.504H256v-60.728C256.001,257.717,249.824,240.653,238.544,227.115z"/>
<path style="fill:#F6F6E7;" d="M281.376,78.691L32,328.067l-16,48l48-16l249.376-249.376c4.243-4.244,6.625-9.999,6.624-16
	c0-12.495-10.129-22.624-22.624-22.624C291.375,72.066,285.62,74.449,281.376,78.691z"/>
<path style="fill:#D1E3EE;" d="M416,352.067c-8.837,0-16-7.163-16-16s7.163-16,16-16s16,7.163,16,16S424.837,352.067,416,352.067z"
	/>
<path style="fill:#31B1AE;" d="M48,312.067c17.673,0,32,14.327,32,32l192-192l-32-32L48,312.067z"/>
<path style="fill:#F8C09C;" d="M368,360.067v-112h-88l-32-8h-78.056c-6.367-0.001-12.474,2.529-16.976,7.032
	c-9.369,9.372-9.369,24.564,0,33.936c4.502,4.503,10.609,7.033,16.976,7.032H224l13.712,24l8.312,14.544
	c6.505,11.383,16.233,20.586,27.96,26.448c9.218,4.608,19.382,7.008,29.688,7.008L368,360.067z"/>
<path style="fill:#EE8EB4;" d="M360,216.067h112v160H360V216.067z"/>
<path style="fill:#FFD884;" d="M240.003,120.083l24.002-24.002l32.001,32.001l-24.002,24.002L240.003,120.083z"/>
<path d="M472,208.067H360c-4.418,0-8,3.582-8,8v24h-19.72l-18.512-27.768c-7.776-11.671-17.119-22.218-27.768-31.344
	c-5.778-4.857-11.904-9.285-18.328-13.248l51.36-51.36c12.034-11.884,12.155-31.274,0.271-43.308s-31.274-12.155-43.308-0.271
	c-0.092,0.091-0.184,0.182-0.275,0.275l-17.368,17.36l-24,24l-31.096,31.104c-0.787-0.389-1.633-0.646-2.504-0.76
	c-4.8-0.448-9.672-0.68-14.472-0.68H96c-2.122,0-4.156,0.844-5.656,2.344l-73.376,73.376C4.933,231.67,4.811,251.06,16.695,263.095
	s31.273,12.157,43.308,0.273c0.093-0.092,0.185-0.184,0.277-0.277l7.904-7.896l2.304,7.664c1.167,3.839,2.54,7.612,4.112,11.304
	l-32.248,32.24l-16,16c-0.874,0.881-1.534,1.951-1.928,3.128l-16,48c-1.401,4.19,0.861,8.723,5.051,10.123
	c0.814,0.272,1.666,0.411,2.525,0.413c0.862-0.001,1.718-0.139,2.536-0.408l48-16c1.176-0.395,2.244-1.057,3.12-1.936l16-16
	l27.376-27.376c19.318,14.153,42.653,21.763,66.6,21.72H248c0.343-0.045,0.683-0.114,1.016-0.208
	c6.067,6.716,13.315,12.261,21.384,16.36c10.336,5.15,21.724,7.836,33.272,7.848H352v8c0,4.418,3.582,8,8,8h112c4.418,0,8-3.582,8-8
	v-160C480,211.648,476.418,208.067,472,208.067L472,208.067z M287.032,84.347c5.72-5.708,14.984-5.699,20.693,0.021
	c2.737,2.742,4.274,6.457,4.275,10.331c0.01,3.881-1.531,7.605-4.28,10.344L296,116.755l-20.688-20.688L287.032,84.347z
	 M264,107.379l20.688,20.688L272,140.755l-20.688-20.688L264,107.379z M48.968,251.787c-5.72,5.708-14.984,5.699-20.693-0.021
	c-2.737-2.742-4.274-6.457-4.275-10.331c-0.005-3.88,1.535-7.602,4.28-10.344l71.032-71.024h86.968c0.8,0,1.536,0.096,2.304,0.112
	l-31.896,31.888H112c-2.122,0-4.156,0.844-5.656,2.344L48.968,251.787z M140.688,208.067l-53.6,53.6
	c-0.392-1.144-0.904-2.272-1.248-3.424l-4.8-15.928l34.272-34.248L140.688,208.067z M59.68,353.075l-31.032,10.344l10.344-31.032
	l12-12c10.808,1.37,19.318,9.88,20.688,20.688L59.68,353.075z M84.64,328.115c-4.056-9.247-11.441-16.632-20.688-20.688
	l101.696-101.696L240,131.379l20.688,20.688l-80,80h-10.752c-17.58-0.046-31.869,14.168-31.915,31.749
	c-0.009,3.322,0.503,6.624,1.515,9.787c-0.43,0.227-0.837,0.495-1.216,0.8L84.64,328.115z M179.632,328.067
	c-19.701,0.02-38.94-5.966-55.152-17.16l23.592-23.6c5.917,5.581,13.73,8.712,21.864,8.76h49.424l18.28,32H179.632z M352,352.067
	h-48.328c-20.956,0-40.306-11.229-50.704-29.424l-22.024-38.576c-1.432-2.48-4.08-4.006-6.944-4h-54.064c-8.837,0-16-7.163-16-16
	s7.163-16,16-16H248c4.418,0,8-3.582,8-8s-3.582-8-8-8h-44.688l52.744-52.744c17.842,10.321,33.042,24.647,44.4,41.848
	l20.888,31.336c1.484,2.225,3.982,3.56,6.656,3.56h24V352.067z M464,368.067h-96v-144h96V368.067z"/>
<circle cx="416" cy="336.067" r="16"/>
<path d="M176,400.067H8c-4.418,0-8,3.582-8,8s3.582,8,8,8h168c4.418,0,8-3.582,8-8S180.418,400.067,176,400.067z"/>
<path d="M216,416.067c4.418,0,8-3.582,8-8s-3.582-8-8-8h-8c-4.418,0-8,3.582-8,8s3.582,8,8,8H216z"/>
<g>
</g>
<g>
</g>
<g>
</g>
<g>
</g>
<g>
</g>
<g>
</g>
<g>
</g>
<g>
</g>
<g>
</g>
<g>
</g>
<g>
</g>
<g>
</g>
<g>
</g>
<g>
</g>
<g>
</g>
</svg>
