<?xml version="1.0" encoding="iso-8859-1"?>
<!-- Generator: Adobe Illustrator 19.0.0, SVG Export Plug-In . SVG Version: 6.00 Build 0)  -->
<svg version="1.1" id="Layer_1" xmlns="http://www.w3.org/2000/svg" xmlns:xlink="http://www.w3.org/1999/xlink" x="0px" y="0px"
	 viewBox="0 0 512 512" style="enable-background:new 0 0 512 512;" xml:space="preserve">
<path style="fill:#D50707;" d="M501.551,386.681c0,28.497-23.312,51.808-51.809,51.808H62.258c-28.496,0-51.809-23.31-51.809-51.808
	V125.319c0-28.498,23.313-51.808,51.809-51.808h387.484c28.497,0,51.809,23.31,51.809,51.808V386.681z"/>
<path style="fill:#FFFFFF;" d="M207.478,352.002c-2.177,0-4.366-0.518-6.366-1.563c-4.518-2.375-7.349-7.053-7.349-12.151V173.716
	c0-5.098,2.831-9.777,7.349-12.151c4.509-2.368,9.982-2.028,14.17,0.874l118.857,82.286c3.706,2.563,5.91,6.777,5.91,11.278
	c0,4.5-2.204,8.712-5.91,11.275l-118.857,82.286C212.95,351.18,210.219,352.002,207.478,352.002z"/>
<path d="M449.742,448.938H62.258C27.929,448.938,0,421.01,0,386.681V125.319C0,90.99,27.929,63.062,62.258,63.062h387.484
	c34.33,0,62.258,27.929,62.258,62.257v261.363C512,421.01,484.072,448.938,449.742,448.938z M62.258,83.96
	c-22.806,0-41.36,18.553-41.36,41.359v261.363c0,22.806,18.554,41.359,41.36,41.359h387.484c22.806,0,41.36-18.553,41.36-41.359
	V125.319c0-22.806-18.554-41.359-41.36-41.359H62.258z"/>
<path d="M207.478,362.451c-3.885,0-7.759-0.952-11.204-2.751c-8.003-4.207-12.959-12.407-12.959-21.412V173.716
	c0-9.009,4.958-17.209,12.939-21.402c3.445-1.809,7.324-2.764,11.217-2.764c4.944,0,9.704,1.487,13.763,4.3l118.853,82.284
	c6.517,4.508,10.411,11.936,10.411,19.869c0,7.931-3.894,15.359-10.416,19.87L221.23,358.156
	C217.177,360.964,212.419,362.451,207.478,362.451z M207.471,170.449c-0.523,0-1.043,0.127-1.502,0.368
	c-1.083,0.568-1.758,1.68-1.758,2.9v164.571c0,1.218,0.675,2.33,1.762,2.902c1.009,0.528,2.376,0.463,3.354-0.214l118.862-82.289
	c0.884-0.611,1.41-1.613,1.41-2.684c0-1.072-0.526-2.075-1.405-2.683L209.333,171.03
	C208.641,170.549,207.938,170.449,207.471,170.449z"/>
<path d="M449.306,405.42h-4.678c-5.77,0-10.449-4.678-10.449-10.449c0-5.771,4.679-10.449,10.449-10.449h4.678
	c5.77,0,10.449,4.678,10.449,10.449C459.755,400.742,455.076,405.42,449.306,405.42z"/>
<path d="M410.825,405.42H309.333c-5.77,0-10.449-4.678-10.449-10.449c0-5.771,4.679-10.449,10.449-10.449h101.492
	c5.77,0,10.449,4.678,10.449,10.449C421.274,400.742,416.595,405.42,410.825,405.42z"/>
<g>
</g>
<g>
</g>
<g>
</g>
<g>
</g>
<g>
</g>
<g>
</g>
<g>
</g>
<g>
</g>
<g>
</g>
<g>
</g>
<g>
</g>
<g>
</g>
<g>
</g>
<g>
</g>
<g>
</g>
</svg>
